<svg width="512" height="512" xmlns="http://www.w3.org/2000/svg" class="ionicon">
 <title>Logo Instagram</title>

 <g>
  <title>background</title>
  <rect fill="none" id="canvas_background" height="402" width="582" y="-1" x="-1"/>
 </g>
 <g>
  <title>Layer 1</title>
  <path fill="#f8fafc" id="svg_1" d="m349.33,69.33a93.62,93.62 0 0 1 93.34,93.34l0,186.66a93.62,93.62 0 0 1 -93.34,93.34l-186.66,0a93.62,93.62 0 0 1 -93.34,-93.34l0,-186.66a93.62,93.62 0 0 1 93.34,-93.34l186.66,0m0,-37.33l-186.66,0c-71.87,0 -130.67,58.8 -130.67,130.67l0,186.66c0,71.87 58.8,130.67 130.67,130.67l186.66,0c71.87,0 130.67,-58.8 130.67,-130.67l0,-186.66c0,-71.87 -58.8,-130.67 -130.67,-130.67z"/>
  <path fill="#f8fafc" id="svg_2" d="m377.33,162.67a28,28 0 1 1 28,-28a27.94,27.94 0 0 1 -28,28zm-121.33,18.66a74.67,74.67 0 1 1 -74.67,74.67a74.75,74.75 0 0 1 74.67,-74.67m0,-37.33a112,112 0 1 0 112,112a112,112 0 0 0 -112,-112z"/>
 </g>
</svg>